<svg width="480" height="480" viewBox="0 0 480 480" fill="none" xmlns="http://www.w3.org/2000/svg">
<g opacity="0.5" filter="url(#filter0_f_1_12)">
<rect x="64" y="64" width="352" height="352" rx="176" fill="#FFD700" fill-opacity="0.2"/>
</g>
<g filter="url(#filter1_d_1_12)">
<g clip-path="url(#clip0_1_12)">
<rect x="80" y="79" width="320" height="322" rx="72" fill="url(#paint0_radial_1_12)"/>
<rect x="81" y="81" width="318" height="318" fill="url(#paint1_linear_1_12)"/>
<path d="M347.75 136.586L348.747 134.359L350.914 133.363C351.442 133.187 351.442 132.484 350.914 132.25L348.747 131.253L347.75 129.086C347.516 128.558 346.872 128.558 346.637 129.086L345.641 131.253L343.414 132.25C342.946 132.484 342.946 133.128 343.414 133.363L345.641 134.359L346.637 136.586C346.813 137.054 347.516 137.054 347.75 136.586V136.586M337.789 138.461L335.797 134.066C335.387 133.07 333.981 133.07 333.571 134.066L331.579 138.461L327.184 140.453C326.188 140.863 326.188 142.269 327.184 142.679L331.579 144.671L333.571 149.066C333.981 150.062 335.387 150.062 335.797 149.066L337.789 144.671L342.184 142.679C343.18 142.269 343.18 140.863 342.184 140.453L337.789 138.461V138.461M346.637 146.546L345.641 148.773L343.414 149.769C342.946 149.945 342.946 150.648 343.414 150.882L345.641 151.878L346.637 154.046C346.813 154.574 347.516 154.574 347.75 154.046L348.747 151.878L350.914 150.882C351.442 150.648 351.442 150.003 350.914 149.769L348.747 148.773L347.75 146.546C347.516 146.078 346.813 146.078 346.637 146.546V146.546" fill="#FFD700"/>
<path d="M348.937 167.706L349.601 166.221L351.046 165.557C351.398 165.44 351.398 164.971 351.046 164.815L349.601 164.151L348.937 162.706C348.781 162.354 348.351 162.354 348.195 162.706L347.531 164.151L346.046 164.815C345.734 164.971 345.734 165.401 346.046 165.557L347.531 166.221L348.195 167.706C348.312 168.018 348.781 168.018 348.937 167.706V167.706M342.296 168.956L340.968 166.026C340.695 165.362 339.757 165.362 339.484 166.026L338.156 168.956L335.226 170.284C334.562 170.557 334.562 171.495 335.226 171.768L338.156 173.096L339.484 176.026C339.757 176.69 340.695 176.69 340.968 176.026L342.296 173.096L345.226 171.768C345.89 171.495 345.89 170.557 345.226 170.284L342.296 168.956V168.956M348.195 174.346L347.531 175.831L346.046 176.495C345.734 176.612 345.734 177.081 346.046 177.237L347.531 177.901L348.195 179.346C348.312 179.698 348.781 179.698 348.937 179.346L349.601 177.901L351.046 177.237C351.398 177.081 351.398 176.651 351.046 176.495L349.601 175.831L348.937 174.346C348.781 174.034 348.312 174.034 348.195 174.346V174.346" fill="#FFD700"/>
<path d="M349.649 191.294L350.114 190.255L351.125 189.791C351.372 189.709 351.372 189.38 351.125 189.271L350.114 188.806L349.649 187.794C349.539 187.548 349.239 187.548 349.129 187.794L348.664 188.806L347.625 189.271C347.407 189.38 347.407 189.681 347.625 189.791L348.664 190.255L349.129 191.294C349.211 191.513 349.539 191.513 349.649 191.294V191.294M345 192.169L344.071 190.119C343.879 189.654 343.223 189.654 343.032 190.119L342.102 192.169L340.051 193.099C339.586 193.291 339.586 193.947 340.051 194.138L342.102 195.068L343.032 197.119C343.223 197.584 343.879 197.584 344.071 197.119L345 195.068L347.051 194.138C347.516 193.947 347.516 193.291 347.051 193.099L345 192.169V192.169M349.129 195.943L348.664 196.982L347.625 197.447C347.407 197.529 347.407 197.857 347.625 197.966L348.664 198.431L349.129 199.443C349.211 199.689 349.539 199.689 349.649 199.443L350.114 198.431L351.125 197.966C351.372 197.857 351.372 197.556 351.125 197.447L350.114 196.982L349.649 195.943C349.539 195.724 349.211 195.724 349.129 195.943V195.943" fill="#FFD700"/>
<path d="M240 144C192 144 172.8 201.6 172.8 259.2C172.8 307.2 211.2 336 249.6 336C288 336 307.2 297.6 307.2 259.2C307.2 220.8 278.4 201.6 240 201.6V201.6C201.6 201.6 172.8 230.4 172.8 268.8" stroke="#FFD700" stroke-width="15.36" stroke-linecap="round" stroke-linejoin="round"/>
<rect x="236" y="74" width="8" height="48" rx="4" fill="#FFD700"/>
<rect x="236" y="358" width="8" height="48" rx="4" fill="#FFD700"/>
</g>
<rect x="80.5" y="79.5" width="319" height="321" rx="71.5" stroke="white" stroke-opacity="0.1"/>
</g>
<defs>
<filter id="filter0_f_1_12" x="0" y="0" width="480" height="480" filterUnits="userSpaceOnUse" color-interpolation-filters="sRGB">
<feFlood flood-opacity="0" result="BackgroundImageFix"/>
<feBlend mode="normal" in="SourceGraphic" in2="BackgroundImageFix" result="shape"/>
<feGaussianBlur stdDeviation="32" result="effect1_foregroundBlur_1_12"/>
</filter>
<filter id="filter1_d_1_12" x="42" y="66" width="396" height="398" filterUnits="userSpaceOnUse" color-interpolation-filters="sRGB">
<feFlood flood-opacity="0" result="BackgroundImageFix"/>
<feColorMatrix in="SourceAlpha" type="matrix" values="0 0 0 0 0 0 0 0 0 0 0 0 0 0 0 0 0 0 127 0" result="hardAlpha"/>
<feMorphology radius="12" operator="erode" in="SourceAlpha" result="effect1_dropShadow_1_12"/>
<feOffset dy="25"/>
<feGaussianBlur stdDeviation="25"/>
<feComposite in2="hardAlpha" operator="out"/>
<feColorMatrix type="matrix" values="0 0 0 0 0 0 0 0 0 0 0 0 0 0 0 0 0 0 0.25 0"/>
<feBlend mode="normal" in2="BackgroundImageFix" result="effect1_dropShadow_1_12"/>
<feBlend mode="normal" in="SourceGraphic" in2="effect1_dropShadow_1_12" result="shape"/>
</filter>
<radialGradient id="paint0_radial_1_12" cx="0" cy="0" r="1" gradientUnits="userSpaceOnUse" gradientTransform="translate(80 79) scale(452.548 455.377)">
<stop stop-color="#1A1B3A"/>
<stop offset="0.4" stop-color="#0D0D1A"/>
<stop offset="1" stop-color="#B21F1F"/>
</radialGradient>
<linearGradient id="paint1_linear_1_12" x1="81" y1="399" x2="399" y2="81" gradientUnits="userSpaceOnUse">
<stop stop-opacity="0"/>
<stop offset="0.5" stop-opacity="0"/>
<stop offset="1" stop-color="white" stop-opacity="0.1"/>
</linearGradient>
<clipPath id="clip0_1_12">
<rect x="80" y="79" width="320" height="322" rx="72" fill="white"/>
</clipPath>
</defs>
</svg>
